<?xml version="1.0" standalone="no"?>
<!DOCTYPE svg PUBLIC "-//W3C//DTD SVG 20010904//EN"
 "http://www.w3.org/TR/2001/REC-SVG-20010904/DTD/svg10.dtd">
<svg version="1.0" xmlns="http://www.w3.org/2000/svg"
 width="512.000000pt" height="512.000000pt" viewBox="0 0 512.000000 512.000000"
 preserveAspectRatio="xMidYMid meet">
<metadata>
Created by potrace 1.14, written by Peter Selinger 2001-2017
</metadata>
<g transform="translate(0.000000,512.000000) scale(0.100000,-0.100000)"
fill="#000000" stroke="none">
<path d="M4900 4983 c0 -15 39 -61 40 -47 0 6 -9 21 -20 34 -11 13 -20 18 -20
13z"/>
<path d="M2329 4946 c-2 -2 -37 -7 -77 -10 -40 -4 -78 -9 -85 -11 -7 -2 -31
-6 -55 -9 -24 -3 -60 -10 -80 -15 -20 -6 -50 -13 -67 -15 -34 -7 -221 -64
-310 -96 -79 -29 -276 -119 -285 -132 -3 -3 -12 -8 -20 -10 -8 -2 -19 -7 -25
-11 -5 -4 -44 -29 -85 -54 -74 -46 -234 -162 -276 -199 -69 -62 -117 -99 -125
-97 -5 2 -8 -1 -6 -6 1 -5 -30 -43 -69 -84 -221 -232 -403 -515 -509 -788 -60
-155 -62 -162 -89 -260 -25 -90 -42 -170 -52 -234 -3 -16 -7 -40 -9 -52 -15
-68 -20 -162 -20 -373 0 -227 6 -310 27 -415 5 -27 12 -63 14 -80 20 -117 91
-340 156 -490 93 -212 242 -448 394 -625 80 -94 280 -283 347 -329 12 -8 24
-18 27 -21 10 -12 196 -136 265 -176 217 -126 564 -253 762 -280 26 -3 51 -8
54 -10 6 -3 54 -10 169 -24 75 -8 467 -7 505 2 23 6 38 -11 25 -27 -6 -8 -5
-12 4 -12 9 0 13 8 10 23 -4 20 1 23 43 27 27 2 59 7 73 11 14 3 57 12 95 20
92 19 102 21 163 40 29 8 52 12 52 9 0 -3 6 -1 13 5 7 6 53 25 103 42 86 31
322 142 414 196 255 150 545 415 722 660 245 339 393 704 453 1121 25 170 24
521 -1 683 -76 486 -262 892 -574 1255 -94 109 -205 218 -289 286 -30 24 -67
56 -83 71 -27 26 -28 29 -13 44 9 9 14 23 11 30 -3 8 -1 14 5 14 6 0 7 5 4 10
-3 6 0 13 7 15 25 10 19 81 -8 106 -19 18 -24 19 -24 7 0 -11 -6 -14 -20 -11
-11 3 -27 0 -35 -7 -8 -7 -15 -9 -15 -5 0 4 -6 3 -12 -2 -7 -6 -26 -13 -43
-17 -16 -4 -38 -15 -49 -24 -10 -9 -20 -16 -22 -14 -32 21 -219 117 -304 155
-118 53 -304 112 -445 141 -106 22 -126 26 -170 32 -22 3 -53 8 -70 11 -34 6
-490 15 -496 9z"/>
<path d="M4874 4938 c-4 -6 -3 -8 4 -4 6 3 17 -1 25 -9 22 -21 30 -19 17 5
-12 22 -35 26 -46 8z"/>
<path d="M3953 4883 c-3 -7 -10 -10 -17 -6 -7 4 -7 1 1 -9 7 -8 10 -17 7 -21
-3 -3 4 -3 15 0 12 3 24 10 28 16 3 6 1 7 -5 3 -15 -9 -16 6 -2 20 7 7 6 11
-6 11 -9 0 -18 -6 -21 -14z"/>
<path d="M4502 4517 c-8 -10 -6 -13 11 -14 12 0 16 1 9 4 -6 3 -10 9 -6 14 8
14 -2 11 -14 -4z"/>
<path d="M4515 4430 c2 -24 25 -51 36 -44 5 3 6 10 3 16 -4 7 -2 8 5 4 9 -6 9
-11 0 -22 -8 -10 -15 -11 -24 -4 -10 8 -15 8 -21 -1 -4 -8 -3 -9 4 -5 7 4 12
1 12 -9 0 -9 -5 -13 -11 -9 -6 3 -4 -5 5 -18 9 -14 13 -28 9 -33 -5 -4 -2 -5
5 -1 7 4 10 11 7 16 -8 14 16 23 28 11 7 -7 6 -12 -6 -17 -25 -9 -21 -27 4
-19 16 6 20 4 13 -6 -6 -12 -5 -12 9 0 18 14 23 26 8 16 -5 -3 -12 -1 -16 5
-3 5 0 10 7 10 10 0 10 2 -1 9 -9 6 -10 11 -2 15 13 9 5 26 -12 26 -7 0 -6 -4
3 -11 13 -9 13 -10 0 -6 -8 2 -24 0 -35 -6 -16 -8 -15 -5 5 15 14 13 29 22 33
20 5 -2 3 6 -5 17 -10 16 -19 20 -38 16 -24 -5 -24 -5 -6 10 11 8 18 15 15 16
-2 0 -11 2 -20 4 -10 2 -15 -4 -14 -15z"/>
<path d="M4435 4330 c-3 -5 -1 -18 4 -28 6 -11 7 -23 3 -28 -4 -5 0 -3 9 4 9
6 19 8 24 4 4 -4 2 3 -4 16 -7 13 -17 20 -23 16 -7 -5 -9 -1 -5 9 7 18 2 23
-8 7z"/>
<path d="M4621 4177 c-1 -11 -6 -15 -13 -11 -7 4 -8 3 -4 -4 4 -7 1 -12 -8
-12 -9 0 -16 -4 -16 -10 0 -5 6 -7 14 -4 9 4 16 -2 18 -17 2 -15 10 -23 25
-24 12 -1 20 2 17 7 -4 5 -12 7 -18 5 -7 -3 -13 0 -13 6 0 7 11 13 24 13 14 1
20 -2 16 -9 -3 -6 -1 -7 5 -3 6 4 8 14 5 23 -5 12 -3 14 8 8 12 -8 12 -6 0 8
-14 18 -26 23 -16 8 6 -11 -33 -26 -42 -17 -4 3 1 6 10 6 10 0 17 5 17 11 0 5
-4 8 -9 4 -5 -3 -12 3 -14 12 -4 17 -5 17 -6 0z"/>
<path d="M4776 4162 c-2 -4 -1 -14 3 -21 6 -9 11 -10 15 -2 4 6 2 11 -4 11 -6
0 -8 5 -5 10 3 6 4 10 1 10 -3 0 -7 -4 -10 -8z"/>
<path d="M3211 107 c-8 -10 -7 -14 4 -14 8 0 12 4 9 8 -2 4 4 10 13 12 15 4
15 5 2 6 -9 0 -22 -5 -28 -12z"/>
<path d="M3134 85 c-4 -8 -10 -12 -15 -9 -15 9 -10 -3 8 -17 11 -10 14 -10 9
-1 -4 6 -3 12 3 12 5 0 13 -5 16 -11 5 -6 13 -2 22 11 8 12 12 24 9 27 -3 4
-6 1 -6 -6 0 -7 -5 -9 -12 -5 -7 5 -8 3 -3 -6 5 -8 3 -11 -6 -8 -8 3 -13 11
-11 17 3 16 -8 13 -14 -4z"/>
<path d="M3025 60 c-3 -6 1 -7 9 -4 18 7 21 14 7 14 -6 0 -13 -4 -16 -10z"/>
<path d="M3076 64 c15 -4 20 -11 17 -23 -6 -23 13 -37 21 -15 3 9 2 12 -5 9
-6 -4 -9 1 -7 11 2 14 -4 19 -22 21 -20 1 -21 0 -4 -3z"/>
<path d="M2971 53 c-2 -20 16 -24 30 -5 13 15 12 16 -3 4 -13 -10 -17 -10 -21
0 -4 9 -6 9 -6 1z"/>
<path d="M2956 31 c4 -16 3 -21 -5 -17 -6 4 -20 9 -30 11 -15 3 -18 0 -14 -13
4 -10 8 -12 11 -4 2 8 9 9 22 2 24 -13 35 3 20 27 -9 15 -10 14 -4 -6z"/>
<path d="M3060 31 c15 -30 30 -35 17 -6 -7 14 -16 25 -20 25 -4 0 -3 -9 3 -19z"/>
<path d="M2869 23 c-13 -16 -12 -17 4 -4 16 13 21 21 13 21 -2 0 -10 -8 -17
-17z"/>
<path d="M2755 20 c-3 -6 1 -7 9 -4 18 7 21 14 7 14 -6 0 -13 -4 -16 -10z"/>
<path d="M2797 23 c-4 -3 -7 -11 -7 -17 0 -6 5 -5 12 2 6 6 9 14 7 17 -3 3 -9
2 -12 -2z"/>
<path d="M3035 19 c-4 -6 -13 -8 -19 -6 -7 3 -19 2 -26 -3 -7 -4 4 -7 27 -6
28 1 39 5 36 14 -6 15 -10 15 -18 1z"/>
</g>
</svg>
